name D:\school\WTK\thesis\model\3dpredictsim\Results\Batchsim_tmt_linear\Pog_s1_tmt_bCst_d02_k250_ig24_pas.mot
datacolumns 128
datarows 4
range 0.00000000 0.03369206
endheader
time	pelvis_tilt	pelvis_list	pelvis_rotation	pelvis_tx	pelvis_ty	pelvis_tz	hip_flexion_l	hip_adduction_l	hip_rotation_l	hip_flexion_r	hip_adduction_r	hip_rotation_r	knee_angle_l	knee_angle_r	ankle_angle_l	ankle_angle_r	subtalar_angle_l	subtalar_angle_r	tmt_angle_l	tmt_angle_r	mtp_angle_l	mtp_angle_r	lumbar_extension	lumbar_bending	lumbar_rotation	arm_flex_l	arm_add_l	arm_rot_l	arm_flex_r	arm_add_r	arm_rot_r	elbow_flex_l	elbow_flex_r	pro_sup_l	pro_sup_r	glut_med1_l/activation	glut_med2_l/activation	glut_med3_l/activation	glut_min1_l/activation	glut_min2_l/activation	glut_min3_l/activation	semimem_l/activation	semiten_l/activation	bifemlh_l/activation	bifemsh_l/activation	sar_l/activation	add_long_l/activation	add_brev_l/activation	add_mag1_l/activation	add_mag2_l/activation	add_mag3_l/activation	tfl_l/activation	pect_l/activation	grac_l/activation	glut_max1_l/activation	glut_max2_l/activation	glut_max3_l/activation	iliacus_l/activation	psoas_l/activation	quad_fem_l/activation	gem_l/activation	peri_l/activation	rect_fem_l/activation	vas_med_l/activation	vas_int_l/activation	vas_lat_l/activation	med_gas_l/activation	lat_gas_l/activation	soleus_l/activation	tib_post_l/activation	flex_dig_l/activation	flex_hal_l/activation	tib_ant_l/activation	per_brev_l/activation	per_long_l/activation	per_tert_l/activation	ext_dig_l/activation	ext_hal_l/activation	ercspn_l/activation	intobl_l/activation	extobl_l/activation	glut_med1_r/activation	glut_med2_r/activation	glut_med3_r/activation	glut_min1_r/activation	glut_min2_r/activation	glut_min3_r/activation	semimem_r/activation	semiten_r/activation	bifemlh_r/activation	bifemsh_r/activation	sar_r/activation	add_long_r/activation	add_brev_r/activation	add_mag1_r/activation	add_mag2_r/activation	add_mag3_r/activation	tfl_r/activation	pect_r/activation	grac_r/activation	glut_max1_r/activation	glut_max2_r/activation	glut_max3_r/activation	iliacus_r/activation	psoas_r/activation	quad_fem_r/activation	gem_r/activation	peri_r/activation	rect_fem_r/activation	vas_med_r/activation	vas_int_r/activation	vas_lat_r/activation	med_gas_r/activation	lat_gas_r/activation	soleus_r/activation	tib_post_r/activation	flex_dig_r/activation	flex_hal_r/activation	tib_ant_r/activation	per_brev_r/activation	per_long_r/activation	per_tert_r/activation	ext_dig_r/activation	ext_hal_r/activation	ercspn_r/activation	intobl_r/activation	extobl_r/activation	
          0.00000000	         -2.91862236	         -2.43283630	          6.58119027	          0.00000000	          0.85450877	         -0.00393041	        -18.02000377	         -2.12802912	          8.93973396	         32.28314235	          3.39356865	         -2.51453718	        -10.35320530	        -16.07054558	         -1.57672877	          6.36450970	         13.06174644	         -2.80429098	          3.87585873	          0.13006085	         21.53368267	         -0.08261940	         -2.13977836	          1.27637034	         -1.96234647	          7.34478851	        -13.49765135	         18.09820491	        -10.51153039	        -13.62852058	          7.19452214	         42.49973638	         14.55543865	         86.51662706	         86.51662706	          0.24512983	          0.08625261	          0.05000004	          0.28313482	          0.19288975	          0.09449984	          0.05000188	          0.05000018	          0.05000015	          0.06492066	          0.09864099	          0.12250150	          0.25142545	          0.05370916	          0.05000477	          0.05000052	          0.28073110	          0.05988030	          0.05000174	          0.05000065	          0.05000047	          0.05000041	          0.34394248	          0.53226189	          0.05000010	          0.05000046	          0.05605468	          0.19311589	          0.05002609	          0.08590152	          0.13834626	          0.26451101	          0.35635422	          0.24326564	          0.22335018	          0.26382620	          0.31193539	          0.05000000	          0.07345223	          0.14453594	          0.05000007	          0.05000001	          0.05000007	          0.05657255	          0.05378627	          0.07046954	          0.05935854	          0.05935881	          0.05000008	          0.05935893	          0.05935891	          0.05006644	          0.05935897	          0.05935883	          0.27383110	          0.05000078	          0.05000021	          0.14003777	          0.32463484	          0.25877876	          0.20668727	          0.10451936	          0.05000010	          0.06508900	          0.13240819	          0.05000018	          0.05000023	          0.07360228	          0.06962310	          0.07046957	          0.58761914	          0.29177446	          0.15195102	          0.05818898	          0.16518625	          0.18159881	          0.15137426	          0.05935909	          0.06459494	          0.06811682	          0.07046953	          0.05000037	          0.05000035	          0.61297467	          0.35759019	          0.20286491	          0.37017250	          0.60395914	          0.36841800	          0.05623993	          0.08179227	          0.07842043	
          0.01123069	         -2.90345354	         -2.56958981	          6.79318956	          0.01753125	          0.85332019	         -0.00366889	        -17.56160414	         -2.42943689	          8.70099643	         31.59369849	          3.88770341	         -2.29060070	        -12.92396316	        -16.43907587	         -2.70344567	          5.62843650	         14.20278602	         -3.30664496	          3.63002749	          0.07037480	         22.67976523	         -0.08185411	         -1.90314245	          1.55489630	         -2.05598349	          6.96501283	        -13.53677962	         18.23335716	        -11.68664054	        -13.62401305	          6.98847840	         43.79719443	         14.49348710	         86.51662706	         86.51662706	          0.20648112	          0.07265350	          0.05935893	          0.23849403	          0.16247756	          0.07960043	          0.05000151	          0.05000016	          0.05000042	          0.05468487	          0.08308871	          0.21136248	          0.30656232	          0.26770303	          0.07064863	          0.12463942	          0.23646933	          0.05043942	          0.05000081	          0.05935942	          0.05935946	          0.05935950	          0.28971432	          0.47633863	          0.05935902	          0.05935924	          0.05858060	          0.16266801	          0.11790935	          0.11790946	          0.11653394	          0.22280650	          0.30016913	          0.20491081	          0.18813538	          0.22222976	          0.26275371	          0.05176613	          0.06187131	          0.12174750	          0.05000006	          0.10574321	          0.05000029	          0.08177788	          0.06894979	          0.05935888	          0.05000000	          0.05000003	          0.11019124	          0.05000004	          0.05000004	          0.05000005	          0.05000010	          0.05000009	          0.23065716	          0.05000005	          0.05019697	          0.11795860	          0.27345227	          0.37011397	          0.27502855	          0.12722459	          0.05000035	          0.07961067	          0.13180799	          0.06466439	          0.11953237	          0.14369319	          0.05864595	          0.05935911	          0.58690043	          0.24577146	          0.12799350	          0.05935913	          0.25780842	          0.27460062	          0.22833912	          0.05000024	          0.05935881	          0.05737745	          0.05935887	          0.07046996	          0.05958614	          0.60027519	          0.45264027	          0.24122360	          0.31180950	          0.59999518	          0.31033091	          0.05000001	          0.06889638	          0.06605617	
          0.02246138	         -2.88345110	         -2.70533902	          6.96982991	          0.03524142	          0.85199151	         -0.00342341	        -16.99341621	         -2.70067644	          8.44657908	         30.66016487	          4.28238153	         -2.01028104	        -15.66856722	        -16.80819025	         -3.88342113	          5.16422237	         15.23203486	         -3.84563632	          3.18267134	         -0.13475556	         23.53606981	         -0.19554368	         -1.65424738	          1.83238258	         -2.13937571	          6.50483890	        -13.57960968	         18.28416519	        -12.81929834	        -13.62720938	          6.87618986	         45.07518405	         14.38888925	         86.51662706	         86.51662706	          0.29296009	          0.06119850	          0.05000004	          0.33628465	          0.13686038	          0.06705016	          0.05000144	          0.05000010	          0.05000007	          0.05000013	          0.07047085	          0.17803798	          0.25822798	          0.22549531	          0.05950989	          0.10498805	          0.21880221	          0.11387242	          0.05000026	          0.05000082	          0.05000067	          0.05000058	          0.24403616	          0.43510077	          0.05000012	          0.05000040	          0.05000005	          0.13702073	          0.09931902	          0.09931911	          0.09816046	          0.18767740	          0.25284255	          0.17260326	          0.15847277	          0.18719167	          0.22132633	          0.17495783	          0.14701159	          0.15549966	          0.29318750	          0.23373558	          0.13696795	          0.09919839	          0.05807873	          0.05000004	          0.31186651	          0.33250865	          0.38740608	          0.45674192	          0.25442032	          0.23673718	          0.09182388	          0.12531555	          0.19429032	          0.08365993	          0.05000072	          0.09936052	          0.23033807	          0.31175952	          0.23166614	          0.15300464	          0.05000016	          0.06705960	          0.13264177	          0.21008630	          0.18333841	          0.12153112	          0.05000030	          0.05000028	          0.49436597	          0.20702165	          0.28696692	          0.05000020	          0.21716076	          0.23130548	          0.19233778	          0.05000009	          0.05000008	          0.05000001	          0.05000000	          0.05935927	          0.05019146	          0.63692431	          0.41945139	          0.20319080	          0.60645871	          0.69101369	          0.36487868	          0.07249478	          0.08365998	          0.05564134	
          0.03369206	         -2.86096626	         -2.82872690	          7.10516116	          0.05283781	          0.85057854	         -0.00314177	        -16.29017090	         -2.93349945	          8.18301394	         29.64186643	          4.65184591	         -1.73498294	        -18.58647143	        -17.10489750	         -4.84289459	          4.89038421	         16.13860052	         -4.42226784	          2.36638378	         -0.04776646	         23.64048347	         -0.20188374	         -1.42128796	          2.09576502	         -2.21112924	          6.02233782	        -13.63061601	         18.28243071	        -13.84556202	        -13.63146940	          6.86324453	         46.28767052	         14.20705083	         86.51662706	         86.51662706	          0.24677016	          0.05154964	          0.05000024	          0.28326392	          0.11528216	          0.05647876	          0.07740971	          0.05935352	          0.05935878	          0.05000048	          0.05936016	          0.18702846	          0.23230089	          0.20712565	          0.05025989	          0.10440729	          0.18430477	          0.09591882	          0.05935870	          0.05000486	          0.05000246	          0.05000112	          0.20555987	          0.36650017	          0.05000061	          0.05000245	          0.05000037	          0.11541717	          0.08365976	          0.08365984	          0.08268387	          0.15808698	          0.21297778	          0.14538952	          0.13348697	          0.15767795	          0.18643068	          0.21892764	          0.14033588	          0.13098279	          0.24696184	          0.28189995	          0.12465604	          0.12927481	          0.05000001	          0.05000002	          0.45553248	          0.52835112	          0.58894119	          0.38473071	          0.39262530	          0.50190265	          0.07739260	          0.11791200	          0.16365728	          0.07046962	          0.05000028	          0.08369473	          0.19402153	          0.26260566	          0.20046614	          0.17755747	          0.05000018	          0.05648746	          0.11172896	          0.32330584	          0.24217214	          0.17534578	          0.05000006	          0.05000006	          0.41642109	          0.17438136	          0.28501664	          0.05000002	          0.29334803	          0.31634688	          0.25705365	          0.05000001	          0.05000003	          0.05000000	          0.05000007	          0.05000049	          0.05000016	          0.79237536	          0.35331800	          0.17115444	          0.51084734	          0.66850694	          0.52746385	          0.10015440	          0.07046961	          0.05000003	
